<mxfile host="app.diagrams.net" modified="2023-10-31T19:03:33.308Z" agent="Mozilla/5.0 (Windows NT 10.0; Win64; x64) AppleWebKit/537.36 (KHTML, like Gecko) Chrome/118.0.0.0 Safari/537.36" etag="mpwOmUB2BpbQf2sL3Q3_" version="22.0.8" type="device">
  <diagram id="C5RBs43oDa-KdzZeNtuy" name="Page-1">
    <mxGraphModel dx="2927" dy="1158" grid="1" gridSize="10" guides="1" tooltips="1" connect="1" arrows="1" fold="1" page="1" pageScale="1" pageWidth="827" pageHeight="1169" math="0" shadow="0">
      <root>
        <mxCell id="WIyWlLk6GJQsqaUBKTNV-0" />
        <mxCell id="WIyWlLk6GJQsqaUBKTNV-1" parent="WIyWlLk6GJQsqaUBKTNV-0" />
        <mxCell id="WIyWlLk6GJQsqaUBKTNV-3" value="Data is Scraped Using&amp;nbsp;requests_html" style="rounded=1;whiteSpace=wrap;html=1;fontSize=12;glass=0;strokeWidth=1;shadow=0;" parent="WIyWlLk6GJQsqaUBKTNV-1" vertex="1">
          <mxGeometry x="230" y="100" width="120" height="40" as="geometry" />
        </mxCell>
        <mxCell id="WIyWlLk6GJQsqaUBKTNV-4" value="&lt;font style=&quot;font-size: 14px;&quot;&gt;Post-&lt;br style=&quot;&quot;&gt;Processing&lt;/font&gt;" style="rounded=0;html=1;jettySize=auto;orthogonalLoop=1;fontSize=12;endArrow=block;endFill=0;endSize=8;strokeWidth=1;shadow=0;labelBackgroundColor=none;edgeStyle=orthogonalEdgeStyle;fontStyle=1" parent="WIyWlLk6GJQsqaUBKTNV-1" edge="1">
          <mxGeometry x="0.1297" y="40" relative="1" as="geometry">
            <mxPoint as="offset" />
            <mxPoint x="289.28999999999996" y="270" as="sourcePoint" />
            <mxPoint x="290" y="820" as="targetPoint" />
          </mxGeometry>
        </mxCell>
        <mxCell id="WIyWlLk6GJQsqaUBKTNV-6" value="Raw data collected" style="rhombus;whiteSpace=wrap;html=1;shadow=0;fontFamily=Helvetica;fontSize=12;align=center;strokeWidth=1;spacing=6;spacingTop=-4;" parent="WIyWlLk6GJQsqaUBKTNV-1" vertex="1">
          <mxGeometry x="240" y="190" width="100" height="80" as="geometry" />
        </mxCell>
        <mxCell id="7o1TJDeWT52KMCX93qye-0" value="" style="endArrow=classic;html=1;rounded=0;exitX=1;exitY=0.5;exitDx=0;exitDy=0;entryX=0;entryY=0.5;entryDx=0;entryDy=0;" edge="1" parent="WIyWlLk6GJQsqaUBKTNV-1" source="7o1TJDeWT52KMCX93qye-2" target="WIyWlLk6GJQsqaUBKTNV-3">
          <mxGeometry width="50" height="50" relative="1" as="geometry">
            <mxPoint x="140" y="119.5" as="sourcePoint" />
            <mxPoint x="220" y="190" as="targetPoint" />
          </mxGeometry>
        </mxCell>
        <mxCell id="7o1TJDeWT52KMCX93qye-2" value="make_dataset.ImmowebScraper" style="rounded=0;whiteSpace=wrap;html=1;" vertex="1" parent="WIyWlLk6GJQsqaUBKTNV-1">
          <mxGeometry x="-60" y="105" width="250" height="30" as="geometry" />
        </mxCell>
        <mxCell id="7o1TJDeWT52KMCX93qye-3" value="Processed &lt;br&gt;data is ready" style="rhombus;whiteSpace=wrap;html=1;shadow=0;fontFamily=Helvetica;fontSize=12;align=center;strokeWidth=1;spacing=6;spacingTop=-4;" vertex="1" parent="WIyWlLk6GJQsqaUBKTNV-1">
          <mxGeometry x="240" y="820" width="100" height="80" as="geometry" />
        </mxCell>
        <mxCell id="7o1TJDeWT52KMCX93qye-11" value="pre_process.pre_process_dataframe" style="swimlane;fontStyle=0;childLayout=stackLayout;horizontal=1;startSize=30;horizontalStack=0;resizeParent=1;resizeParentMax=0;resizeLast=0;collapsible=1;marginBottom=0;whiteSpace=wrap;html=1;" vertex="1" parent="WIyWlLk6GJQsqaUBKTNV-1">
          <mxGeometry x="-60" y="260" width="260" height="150" as="geometry" />
        </mxCell>
        <mxCell id="7o1TJDeWT52KMCX93qye-12" value="&lt;ul&gt;&lt;li&gt;Standardizes column names,&lt;/li&gt;&lt;li&gt;Converts specified columns to floats&lt;/li&gt;&lt;li&gt;Handles boolean values,&lt;/li&gt;&lt;li&gt;Performs targeted data cleaning and type conversions.&lt;/li&gt;&lt;/ul&gt;" style="text;strokeColor=none;fillColor=none;align=left;verticalAlign=middle;spacingLeft=4;spacingRight=4;overflow=hidden;points=[[0,0.5],[1,0.5]];portConstraint=eastwest;rotatable=0;whiteSpace=wrap;html=1;" vertex="1" parent="7o1TJDeWT52KMCX93qye-11">
          <mxGeometry y="30" width="260" height="120" as="geometry" />
        </mxCell>
        <mxCell id="7o1TJDeWT52KMCX93qye-15" value="" style="endArrow=classic;html=1;rounded=0;exitX=1;exitY=0.5;exitDx=0;exitDy=0;" edge="1" parent="WIyWlLk6GJQsqaUBKTNV-1">
          <mxGeometry width="50" height="50" relative="1" as="geometry">
            <mxPoint x="200" y="349.46000000000004" as="sourcePoint" />
            <mxPoint x="280" y="349" as="targetPoint" />
          </mxGeometry>
        </mxCell>
        <mxCell id="7o1TJDeWT52KMCX93qye-19" value="pre_process.get_location_details_from_google" style="swimlane;fontStyle=0;childLayout=stackLayout;horizontal=1;startSize=30;horizontalStack=0;resizeParent=1;resizeParentMax=0;resizeLast=0;collapsible=1;marginBottom=0;whiteSpace=wrap;html=1;" vertex="1" parent="WIyWlLk6GJQsqaUBKTNV-1">
          <mxGeometry x="-60" y="490" width="260" height="100" as="geometry" />
        </mxCell>
        <mxCell id="7o1TJDeWT52KMCX93qye-20" value="This function utilizes the geocoder library with Google&#39;s Geocoding API to retrieve more precise location details." style="text;strokeColor=none;fillColor=none;align=left;verticalAlign=middle;spacingLeft=4;spacingRight=4;overflow=hidden;points=[[0,0.5],[1,0.5]];portConstraint=eastwest;rotatable=0;whiteSpace=wrap;html=1;" vertex="1" parent="7o1TJDeWT52KMCX93qye-19">
          <mxGeometry y="30" width="260" height="70" as="geometry" />
        </mxCell>
        <mxCell id="7o1TJDeWT52KMCX93qye-21" value="pre_process.prepare_data_for_modelling" style="swimlane;fontStyle=0;childLayout=stackLayout;horizontal=1;startSize=30;horizontalStack=0;resizeParent=1;resizeParentMax=0;resizeLast=0;collapsible=1;marginBottom=0;whiteSpace=wrap;html=1;" vertex="1" parent="WIyWlLk6GJQsqaUBKTNV-1">
          <mxGeometry x="-60" y="650" width="260" height="160" as="geometry" />
        </mxCell>
        <mxCell id="7o1TJDeWT52KMCX93qye-22" value="&lt;ul&gt;&lt;li&gt;Randomly shuffles rows,&amp;nbsp;&lt;/li&gt;&lt;li&gt;Transforms &#39;price&#39; to base 10 log&lt;/li&gt;&lt;li&gt;Fills missing values in categorical data with &#39;missing value,&#39;&amp;nbsp;&lt;/li&gt;&lt;li&gt;Separates features (X) and target (y),&lt;/li&gt;&lt;li&gt;Filters out outliers using LocalOutlierFactor.&lt;/li&gt;&lt;/ul&gt;" style="text;strokeColor=none;fillColor=none;align=left;verticalAlign=middle;spacingLeft=4;spacingRight=4;overflow=hidden;points=[[0,0.5],[1,0.5]];portConstraint=eastwest;rotatable=0;whiteSpace=wrap;html=1;" vertex="1" parent="7o1TJDeWT52KMCX93qye-21">
          <mxGeometry y="30" width="260" height="130" as="geometry" />
        </mxCell>
        <mxCell id="7o1TJDeWT52KMCX93qye-23" value="" style="endArrow=classic;html=1;rounded=0;exitX=1;exitY=0.5;exitDx=0;exitDy=0;" edge="1" parent="WIyWlLk6GJQsqaUBKTNV-1">
          <mxGeometry width="50" height="50" relative="1" as="geometry">
            <mxPoint x="200" y="550.46" as="sourcePoint" />
            <mxPoint x="280" y="550" as="targetPoint" />
          </mxGeometry>
        </mxCell>
        <mxCell id="7o1TJDeWT52KMCX93qye-24" value="" style="endArrow=classic;html=1;rounded=0;exitX=1;exitY=0.5;exitDx=0;exitDy=0;" edge="1" parent="WIyWlLk6GJQsqaUBKTNV-1">
          <mxGeometry width="50" height="50" relative="1" as="geometry">
            <mxPoint x="200" y="729.69" as="sourcePoint" />
            <mxPoint x="280" y="729.23" as="targetPoint" />
          </mxGeometry>
        </mxCell>
        <mxCell id="7o1TJDeWT52KMCX93qye-25" value="Ready for&lt;br style=&quot;font-size: 12px;&quot;&gt;Training" style="rhombus;whiteSpace=wrap;html=1;shadow=0;fontFamily=Helvetica;fontSize=12;align=center;strokeWidth=1;spacing=6;spacingTop=-4;" vertex="1" parent="WIyWlLk6GJQsqaUBKTNV-1">
          <mxGeometry x="240" y="960" width="100" height="80" as="geometry" />
        </mxCell>
        <mxCell id="7o1TJDeWT52KMCX93qye-26" value="&lt;font style=&quot;font-size: 14px;&quot;&gt;Split Data&lt;/font&gt;" style="rounded=0;html=1;jettySize=auto;orthogonalLoop=1;fontSize=12;endArrow=block;endFill=0;endSize=8;strokeWidth=1;shadow=0;labelBackgroundColor=none;edgeStyle=orthogonalEdgeStyle;entryX=0.5;entryY=0;entryDx=0;entryDy=0;fontStyle=1" edge="1" parent="WIyWlLk6GJQsqaUBKTNV-1" target="7o1TJDeWT52KMCX93qye-25">
          <mxGeometry x="-0.3191" y="40" relative="1" as="geometry">
            <mxPoint x="1" y="1" as="offset" />
            <mxPoint x="289.23" y="900" as="sourcePoint" />
            <mxPoint x="289.23" y="1030" as="targetPoint" />
          </mxGeometry>
        </mxCell>
        <mxCell id="7o1TJDeWT52KMCX93qye-28" style="edgeStyle=orthogonalEdgeStyle;rounded=0;orthogonalLoop=1;jettySize=auto;html=1;exitX=1;exitY=0.5;exitDx=0;exitDy=0;entryX=0;entryY=0.5;entryDx=0;entryDy=0;" edge="1" parent="WIyWlLk6GJQsqaUBKTNV-1" source="7o1TJDeWT52KMCX93qye-27" target="7o1TJDeWT52KMCX93qye-25">
          <mxGeometry relative="1" as="geometry" />
        </mxCell>
        <mxCell id="7o1TJDeWT52KMCX93qye-27" value="model_selection.train_test_split" style="rounded=0;whiteSpace=wrap;html=1;" vertex="1" parent="WIyWlLk6GJQsqaUBKTNV-1">
          <mxGeometry x="-60" y="985" width="260" height="30" as="geometry" />
        </mxCell>
        <mxCell id="7o1TJDeWT52KMCX93qye-29" value="&lt;font style=&quot;font-size: 14px;&quot;&gt;Training and &lt;br style=&quot;&quot;&gt;Evaluation&lt;/font&gt;" style="rounded=0;html=1;jettySize=auto;orthogonalLoop=1;fontSize=12;endArrow=block;endFill=0;endSize=8;strokeWidth=1;shadow=0;labelBackgroundColor=none;edgeStyle=orthogonalEdgeStyle;fontStyle=1;entryX=0.5;entryY=1;entryDx=0;entryDy=0;" edge="1" parent="WIyWlLk6GJQsqaUBKTNV-1" target="7o1TJDeWT52KMCX93qye-30">
          <mxGeometry x="0.1203" y="50" relative="1" as="geometry">
            <mxPoint as="offset" />
            <mxPoint x="350" y="1000" as="sourcePoint" />
            <mxPoint x="490" y="550" as="targetPoint" />
          </mxGeometry>
        </mxCell>
        <mxCell id="7o1TJDeWT52KMCX93qye-30" value="Model saved" style="rhombus;whiteSpace=wrap;html=1;shadow=0;fontFamily=Helvetica;fontSize=12;align=center;strokeWidth=1;spacing=6;spacingTop=-4;" vertex="1" parent="WIyWlLk6GJQsqaUBKTNV-1">
          <mxGeometry x="440" y="460" width="100" height="80" as="geometry" />
        </mxCell>
        <mxCell id="7o1TJDeWT52KMCX93qye-31" value="&lt;font style=&quot;font-size: 14px;&quot;&gt;Update Data and &lt;br&gt;Model&lt;/font&gt;" style="rounded=0;html=1;jettySize=auto;orthogonalLoop=1;fontSize=12;endArrow=block;endFill=0;endSize=8;strokeWidth=1;shadow=0;labelBackgroundColor=none;edgeStyle=orthogonalEdgeStyle;fontStyle=1;exitX=0.5;exitY=0;exitDx=0;exitDy=0;" edge="1" parent="WIyWlLk6GJQsqaUBKTNV-1" source="7o1TJDeWT52KMCX93qye-30">
          <mxGeometry x="0.1307" y="70" relative="1" as="geometry">
            <mxPoint as="offset" />
            <mxPoint x="450" y="680" as="sourcePoint" />
            <mxPoint x="370" y="120" as="targetPoint" />
            <Array as="points">
              <mxPoint x="490" y="120" />
            </Array>
          </mxGeometry>
        </mxCell>
        <mxCell id="7o1TJDeWT52KMCX93qye-32" value="train_model.train_catboost" style="rounded=0;whiteSpace=wrap;html=1;" vertex="1" parent="WIyWlLk6GJQsqaUBKTNV-1">
          <mxGeometry x="590" y="870" width="250" height="30" as="geometry" />
        </mxCell>
        <mxCell id="7o1TJDeWT52KMCX93qye-33" value="" style="endArrow=classic;html=1;rounded=0;" edge="1" parent="WIyWlLk6GJQsqaUBKTNV-1">
          <mxGeometry width="50" height="50" relative="1" as="geometry">
            <mxPoint x="590" y="884.23" as="sourcePoint" />
            <mxPoint x="500" y="884.23" as="targetPoint" />
          </mxGeometry>
        </mxCell>
        <mxCell id="7o1TJDeWT52KMCX93qye-34" value="Evaluate Model Performance&amp;nbsp;" style="swimlane;fontStyle=0;childLayout=stackLayout;horizontal=1;startSize=30;horizontalStack=0;resizeParent=1;resizeParentMax=0;resizeLast=0;collapsible=1;marginBottom=0;whiteSpace=wrap;html=1;" vertex="1" parent="WIyWlLk6GJQsqaUBKTNV-1">
          <mxGeometry x="590" y="620" width="380" height="120" as="geometry" />
        </mxCell>
        <mxCell id="7o1TJDeWT52KMCX93qye-35" value="predict_model.predict_catboost(model=model, X=X_test)" style="text;strokeColor=none;fillColor=none;align=left;verticalAlign=middle;spacingLeft=4;spacingRight=4;overflow=hidden;points=[[0,0.5],[1,0.5]];portConstraint=eastwest;rotatable=0;whiteSpace=wrap;html=1;" vertex="1" parent="7o1TJDeWT52KMCX93qye-34">
          <mxGeometry y="30" width="380" height="30" as="geometry" />
        </mxCell>
        <mxCell id="7o1TJDeWT52KMCX93qye-36" value="predict_model.score_prediction(y_pred=prediction, y_true=y_test)" style="text;strokeColor=none;fillColor=none;align=left;verticalAlign=middle;spacingLeft=4;spacingRight=4;overflow=hidden;points=[[0,0.5],[1,0.5]];portConstraint=eastwest;rotatable=0;whiteSpace=wrap;html=1;" vertex="1" parent="7o1TJDeWT52KMCX93qye-34">
          <mxGeometry y="60" width="380" height="30" as="geometry" />
        </mxCell>
        <mxCell id="7o1TJDeWT52KMCX93qye-37" value="predict_model.save_model_performance(RMSE, R2)" style="text;strokeColor=none;fillColor=none;align=left;verticalAlign=middle;spacingLeft=4;spacingRight=4;overflow=hidden;points=[[0,0.5],[1,0.5]];portConstraint=eastwest;rotatable=0;whiteSpace=wrap;html=1;" vertex="1" parent="7o1TJDeWT52KMCX93qye-34">
          <mxGeometry y="90" width="380" height="30" as="geometry" />
        </mxCell>
        <mxCell id="7o1TJDeWT52KMCX93qye-40" value="" style="endArrow=classic;html=1;rounded=0;" edge="1" parent="WIyWlLk6GJQsqaUBKTNV-1">
          <mxGeometry width="50" height="50" relative="1" as="geometry">
            <mxPoint x="590" y="680" as="sourcePoint" />
            <mxPoint x="500" y="680" as="targetPoint" />
          </mxGeometry>
        </mxCell>
        <mxCell id="7o1TJDeWT52KMCX93qye-41" value="Monthly CI/CD pipeline using GitHub Actions" style="rounded=0;whiteSpace=wrap;html=1;" vertex="1" parent="WIyWlLk6GJQsqaUBKTNV-1">
          <mxGeometry x="590" y="270" width="250" height="30" as="geometry" />
        </mxCell>
        <mxCell id="7o1TJDeWT52KMCX93qye-42" value="" style="endArrow=classic;html=1;rounded=0;" edge="1" parent="WIyWlLk6GJQsqaUBKTNV-1">
          <mxGeometry width="50" height="50" relative="1" as="geometry">
            <mxPoint x="590" y="284.09" as="sourcePoint" />
            <mxPoint x="500" y="284.09" as="targetPoint" />
          </mxGeometry>
        </mxCell>
        <mxCell id="7o1TJDeWT52KMCX93qye-44" value="&lt;font style=&quot;font-size: 14px;&quot;&gt;Gather data&lt;/font&gt;" style="rounded=0;html=1;jettySize=auto;orthogonalLoop=1;fontSize=12;endArrow=block;endFill=0;endSize=8;strokeWidth=1;shadow=0;labelBackgroundColor=none;edgeStyle=orthogonalEdgeStyle;fontStyle=1" edge="1" parent="WIyWlLk6GJQsqaUBKTNV-1">
          <mxGeometry x="-0.0512" y="-50" relative="1" as="geometry">
            <mxPoint x="-1" as="offset" />
            <mxPoint x="289.35" y="140" as="sourcePoint" />
            <mxPoint x="290" y="190" as="targetPoint" />
          </mxGeometry>
        </mxCell>
      </root>
    </mxGraphModel>
  </diagram>
</mxfile>
